# xmcd CD database file
#
# Track frame offsets:
#	150
#	18363
#	41991
#	60204
#
# Disc length: 1115 seconds
#
# Revision: 0
# Processed by: cddbd v1.5.1PL0 Copyright (c) Steve Scherf et al.
# Submitted via: CDex 1.51
#
DISCID=29045904
DTITLE=藤みさき＋ - クランベリー・カフェ
DYEAR=2004
DGENRE=Japanese Pop
TTITLE0=クランベリー・カフェ
TTITLE1=クランベリー・カフェ (Club mix)
TTITLE2=クランベリー・カフェ (Backtracking)
TTITLE3=クランベリー・カフェ (Backtracking/Club mix)
EXTD=YEAR: 2004
EXTT0=
EXTT1=
EXTT2=
EXTT3=
PLAYORDER=
